<svg xmlns="http://www.w3.org/2000/svg" viewBox="0 0 512 512" fill="none">
  <!-- Outer circle -->
  <circle cx="256" cy="256" r="246" fill="#060610" stroke="#10B981" stroke-width="10"/>
  <!-- Inner dashed orbit -->
  <circle cx="256" cy="256" r="226" fill="none" stroke="#10B981" stroke-width="2" opacity="0.15" stroke-dasharray="4 6"/>

  <!-- Hexagonal shield -->
  <path d="M256 60 L420 140 L420 340 L256 440 L92 340 L92 140 Z" fill="#10B981" opacity="0.04"/>
  <path d="M256 60 L420 140 L420 340 L256 440 L92 340 L92 140 Z" fill="none" stroke="#10B981" stroke-width="4"/>
  <!-- Inner hex dashed -->
  <path d="M256 100 L388 164 L388 316 L256 396 L124 316 L124 164 Z" fill="none" stroke="#10B981" stroke-width="1.5" opacity="0.2" stroke-dasharray="6 5"/>

  <!-- Person head -->
  <circle cx="256" cy="190" r="46" fill="#34D399"/>
  <!-- Person shoulders -->
  <path d="M172 340 C172 288 210 254 256 254 C302 254 340 288 340 340 L172 340 Z" fill="#34D399" opacity="0.25"/>
  <path d="M172 340 C172 288 210 254 256 254 C302 254 340 288 340 340" fill="none" stroke="#34D399" stroke-width="5" stroke-linecap="round"/>

  <!-- Document floating left -->
  <rect x="108" y="200" width="44" height="56" rx="6" fill="none" stroke="#6EE7B7" stroke-width="2.5" opacity="0.6" transform="rotate(-12 130 228)"/>
  <line x1="118" y1="218" x2="142" y2="214" stroke="#6EE7B7" stroke-width="2" opacity="0.4" transform="rotate(-12 130 228)"/>
  <line x1="118" y1="228" x2="138" y2="225" stroke="#6EE7B7" stroke-width="2" opacity="0.3" transform="rotate(-12 130 228)"/>

  <!-- Document floating right -->
  <rect x="360" y="200" width="44" height="56" rx="6" fill="none" stroke="#6EE7B7" stroke-width="2.5" opacity="0.6" transform="rotate(12 382 228)"/>
  <line x1="370" y1="218" x2="394" y2="222" stroke="#6EE7B7" stroke-width="2" opacity="0.4" transform="rotate(12 382 228)"/>
  <line x1="370" y1="228" x2="390" y2="231" stroke="#6EE7B7" stroke-width="2" opacity="0.3" transform="rotate(12 382 228)"/>

  <!-- Checkmark badge -->
  <circle cx="256" cy="400" r="22" fill="#059669"/>
  <path d="M244 400 L252 408 L268 392" fill="none" stroke="white" stroke-width="4" stroke-linecap="round" stroke-linejoin="round"/>

  <!-- Energy particles -->
  <circle cx="148" cy="360" r="4" fill="#6EE7B7" opacity="0.8"/>
  <circle cx="132" cy="320" r="3" fill="#34D399" opacity="0.6"/>
  <circle cx="124" cy="280" r="2.5" fill="#10B981" opacity="0.4"/>
  <circle cx="364" cy="360" r="4" fill="#6EE7B7" opacity="0.8"/>
  <circle cx="380" cy="320" r="3" fill="#34D399" opacity="0.6"/>
  <circle cx="388" cy="280" r="2.5" fill="#10B981" opacity="0.4"/>

  <!-- Top accent nodes -->
  <circle cx="196" cy="90" r="3" fill="#6EE7B7" opacity="0.7"/>
  <circle cx="316" cy="90" r="3" fill="#6EE7B7" opacity="0.7"/>
  <circle cx="256" cy="52" r="2.5" fill="#34D399" opacity="0.5"/>

  <!-- Connecting lines -->
  <line x1="196" y1="90" x2="174" y2="120" stroke="#10B981" stroke-width="1" opacity="0.15"/>
  <line x1="316" y1="90" x2="338" y2="120" stroke="#10B981" stroke-width="1" opacity="0.15"/>
</svg>
