<svg width="472" height="472" viewBox="0 0 472 472" fill="none" xmlns="http://www.w3.org/2000/svg">
<g filter="url(#filter0_ddd_1429_3779)">
<mask id="path-1-inside-1_1429_3779" fill="white">
<path d="M8 36C8 18.3269 22.3269 4 40 4H432C449.673 4 464 18.3269 464 36V428C464 445.673 449.673 460 432 460H40C22.3269 460 8 445.673 8 428V36Z"/>
</mask>
<path d="M8 36C8 18.3269 22.3269 4 40 4H432C449.673 4 464 18.3269 464 36V428C464 445.673 449.673 460 432 460H40C22.3269 460 8 445.673 8 428V36Z" fill="url(#paint0_linear_1429_3779)" shape-rendering="crispEdges"/>
<path d="M8 4H464H8M465 429C465 447.225 450.225 462 432 462H42C23.2223 462 8 446.778 8 428C8 444.569 22.3269 458 40 458H432C449.121 458 463 444.569 463 428L465 429ZM463 428M8 460V4V460M432 4C450.225 4 465 18.7746 465 37V429C465 447.225 450.225 462 432 462V458C449.121 458 463 444.569 463 428V36C463 18.3269 449.121 4 432 4Z" fill="url(#paint1_linear_1429_3779)" mask="url(#path-1-inside-1_1429_3779)"/>
<g clip-path="url(#clip0_1429_3779)">
<mask id="mask0_1429_3779" style="mask-type:luminance" maskUnits="userSpaceOnUse" x="44" y="40" width="384" height="384">
<path d="M428 40H44V424H428V40Z" fill="white"/>
</mask>
<g mask="url(#mask0_1429_3779)">
<path d="M260.689 46.1935L271.189 40L357.317 125.757L358.661 127.107L428 196.744L422.141 205.002L354.198 135.206L358.661 127.107L357.317 125.757L345.981 133.221L260.689 46.1935Z" fill="url(#paint2_linear_1429_3779)"/>
<path d="M413.62 221.439L419.554 212.784L350.698 141.717L345.904 151.484L413.62 221.439Z" fill="url(#paint3_linear_1429_3779)"/>
<path d="M252.853 51.2754L336.926 138.461L326.35 144.893L241.744 57.3101L252.853 51.2754Z" fill="url(#paint4_linear_1429_3779)"/>
<path d="M222.723 69.6187L233.907 63.3457L317.144 150.294L306.568 156.567L222.723 69.6187Z" fill="url(#paint5_linear_1429_3779)"/>
<path d="M403.5 243.275L334.491 172.129L329.697 181.26L397.869 252.248L403.5 243.275Z" fill="url(#paint6_linear_1429_3779)"/>
<path d="M337.916 166.252L342.633 156.645L411.87 227.712L406.773 237.002L337.916 166.252Z" fill="url(#paint7_linear_1429_3779)"/>
<path d="M213.821 75.0176L202.408 82.0846L286.634 167.683L297.058 161.171L213.821 75.0176Z" fill="url(#paint8_linear_1429_3779)"/>
<path d="M395.51 258.998C372.711 235.335 326.988 187.979 326.501 187.852L320.947 197.221L390.184 268.368L395.51 258.998Z" fill="url(#paint9_linear_1429_3779)"/>
<path d="M194.114 86.4512L182.777 92.8035L266.395 178.64L277.275 172.287L194.114 86.4512Z" fill="url(#paint10_linear_1429_3779)"/>
<path d="M386.609 275.355L317.904 204.209L312.73 213.817L381.283 284.725L386.609 275.355Z" fill="url(#paint11_linear_1429_3779)"/>
<path d="M163.529 104.317L174.79 97.7266L258.103 184.198L247.07 190.153L163.529 104.317Z" fill="url(#paint12_linear_1429_3779)"/>
<path d="M304.209 229.38L309.687 220.566L378.163 291.475L372.533 300.606L304.209 229.38Z" fill="url(#paint13_linear_1429_3779)"/>
<path d="M295.916 246.054L300.709 236.287L369.49 306.878L364.164 316.406L295.916 246.054Z" fill="#1989C9"/>
<path d="M155.007 109.4L237.787 195.078L226.907 201.351L143.822 115.753L155.007 109.4Z" fill="#1594CE"/>
<path d="M280.014 256.853L289.22 251.057L361.196 323.474L354.957 334.67L280.014 256.853Z" fill="#119FD3"/>
<path d="M270.808 262.57L347.197 341.181L334.719 348.565L258.102 269.479L270.808 262.57Z" fill="#0DAAD8"/>
<path d="M212.679 218.74L218.766 206.829L134.996 120.834L128.377 130.204L212.679 218.74Z" fill="#0EA5E9"/>
<path d="M125.714 135.762L210.549 223.107L204.462 233.429L120.084 145.37L125.714 135.762Z" fill="#10A8E7"/>
<path d="M237.787 282.661L249.809 275.117L324.524 353.331L312.731 360.953L237.787 282.661Z" fill="#12ABE5"/>
<path d="M117.498 150.531L202.408 238.035L196.245 248.119L112.096 161.171L117.498 150.531Z" fill="#14AEE3"/>
<path d="M216.027 295.524L228.581 288.219L304.21 366.591L290.743 373.023L216.027 295.524Z" fill="#16B1E1"/>
<path d="M104.105 176.099L109.964 165.459L192.896 252.248L187.951 262.571L104.105 176.099Z" fill="#06B6D4"/>
<path d="M194.57 308.705L207.353 300.605L281.916 378.819L270.807 385.648L194.57 308.705Z" fill="#08B8D2"/>
<path d="M180.267 278.214L185.593 268.13L101.519 181.658L96.1172 190.154L180.267 278.214Z" fill="#0ABAD0"/>
<path d="M92.8463 197.221L176.996 282.66L171.822 293.935L88.2812 206.829L92.8463 197.221Z" fill="#0CBDCE"/>
<path d="M173.268 322.045L185.593 314.502L259.852 391.207L247.298 398.432L173.268 322.045Z" fill="#0EBFCC"/>
<path d="M84.6285 212.387L169.235 299.096L163.452 309.34L79.1504 222.074L84.6285 212.387Z" fill="#14B8A6"/>
<path d="M154.931 324.824L160.942 314.978L76.3356 227.871L70.9336 237.479L154.931 324.824Z" fill="#12BBA4"/>
<path d="M151.432 334.512L163.453 326.969L238.244 403.594L225.614 411.137L151.432 334.512Z" fill="#10BEA2"/>
<path d="M68.2706 242.879L152.116 328.795L151.051 334.194L143.975 337.45L62.4121 253.916L68.2706 242.879Z" fill="#0EC1A0"/>
<path d="M216.027 415.981L142.225 340.785L59.5968 259.951L53.7383 269.48L203.473 424.001L216.027 415.981Z" fill="#0CC49E"/>
<path d="M53.1302 311.166C58.1726 311.166 62.2604 306.9 62.2604 301.638C62.2604 296.375 58.1726 292.109 53.1302 292.109C48.0877 292.109 44 296.375 44 301.638C44 306.9 48.0877 311.166 53.1302 311.166Z" fill="url(#paint14_linear_1429_3779)"/>
<path d="M284.047 168.795L357.089 127.822L295.992 246.611L228.5 288.5L194.5 309L185.5 314.5L173.5 322L163.5 327L153 333.5L151 334L232.822 278.356C238.31 274.803 243.065 270.147 246.811 264.658L247.26 264.001L249.639 260.517C252.125 256.874 254.14 252.903 255.631 248.711L284.047 168.795Z" fill="#0891B2"/>
</g>
</g>
</g>
<defs>
<filter id="filter0_ddd_1429_3779" x="0" y="0" width="472" height="472" filterUnits="userSpaceOnUse" color-interpolation-filters="sRGB">
<feFlood flood-opacity="0" result="BackgroundImageFix"/>
<feColorMatrix in="SourceAlpha" type="matrix" values="0 0 0 0 0 0 0 0 0 0 0 0 0 0 0 0 0 0 127 0" result="hardAlpha"/>
<feOffset dy="8"/>
<feGaussianBlur stdDeviation="2"/>
<feComposite in2="hardAlpha" operator="out"/>
<feColorMatrix type="matrix" values="0 0 0 0 0.113725 0 0 0 0 0.435294 0 0 0 0 0.835294 0 0 0 0.75 0"/>
<feBlend mode="normal" in2="BackgroundImageFix" result="effect1_dropShadow_1429_3779"/>
<feColorMatrix in="SourceAlpha" type="matrix" values="0 0 0 0 0 0 0 0 0 0 0 0 0 0 0 0 0 0 127 0" result="hardAlpha"/>
<feOffset dx="4"/>
<feGaussianBlur stdDeviation="2"/>
<feComposite in2="hardAlpha" operator="out"/>
<feColorMatrix type="matrix" values="0 0 0 0 0.113725 0 0 0 0 0.435294 0 0 0 0 0.835294 0 0 0 0.5 0"/>
<feBlend mode="normal" in2="effect1_dropShadow_1429_3779" result="effect2_dropShadow_1429_3779"/>
<feColorMatrix in="SourceAlpha" type="matrix" values="0 0 0 0 0 0 0 0 0 0 0 0 0 0 0 0 0 0 127 0" result="hardAlpha"/>
<feOffset dx="-4"/>
<feGaussianBlur stdDeviation="2"/>
<feComposite in2="hardAlpha" operator="out"/>
<feColorMatrix type="matrix" values="0 0 0 0 0.113725 0 0 0 0 0.435294 0 0 0 0 0.835294 0 0 0 0.5 0"/>
<feBlend mode="normal" in2="effect2_dropShadow_1429_3779" result="effect3_dropShadow_1429_3779"/>
<feBlend mode="normal" in="SourceGraphic" in2="effect3_dropShadow_1429_3779" result="shape"/>
</filter>
<linearGradient id="paint0_linear_1429_3779" x1="236" y1="460" x2="236" y2="4" gradientUnits="userSpaceOnUse">
<stop stop-color="#071224"/>
<stop offset="0.5" stop-color="#0B1E3D"/>
<stop offset="1" stop-color="#123A74"/>
</linearGradient>
<linearGradient id="paint1_linear_1429_3779" x1="236" y1="4" x2="236" y2="460" gradientUnits="userSpaceOnUse">
<stop stop-color="#1D4FCC"/>
<stop offset="0.223558" stop-color="#1D6FD5"/>
<stop offset="0.447115" stop-color="#1691DB"/>
<stop offset="0.62" stop-color="#16A7DE"/>
<stop offset="0.78" stop-color="#19B9D9"/>
<stop offset="1" stop-color="#27D8BE"/>
</linearGradient>
<linearGradient id="paint2_linear_1429_3779" x1="344.345" y1="40" x2="344.345" y2="205.002" gradientUnits="userSpaceOnUse">
<stop stop-color="#1D4FCC"/>
<stop offset="0.223558" stop-color="#1D6FD5"/>
<stop offset="0.447115" stop-color="#1691DB"/>
<stop offset="0.62" stop-color="#16A7DE"/>
<stop offset="0.78" stop-color="#19B9D9"/>
<stop offset="1" stop-color="#27D8BE"/>
</linearGradient>
<linearGradient id="paint3_linear_1429_3779" x1="382.729" y1="141.717" x2="382.729" y2="221.439" gradientUnits="userSpaceOnUse">
<stop stop-color="#1D4FCC"/>
<stop offset="0.223558" stop-color="#1D6FD5"/>
<stop offset="0.447115" stop-color="#1691DB"/>
<stop offset="0.62" stop-color="#16A7DE"/>
<stop offset="0.78" stop-color="#19B9D9"/>
<stop offset="1" stop-color="#27D8BE"/>
</linearGradient>
<linearGradient id="paint4_linear_1429_3779" x1="289.335" y1="51.2754" x2="289.335" y2="144.893" gradientUnits="userSpaceOnUse">
<stop stop-color="#1D4FCC"/>
<stop offset="0.223558" stop-color="#1D6FD5"/>
<stop offset="0.447115" stop-color="#1691DB"/>
<stop offset="0.62" stop-color="#16A7DE"/>
<stop offset="0.78" stop-color="#19B9D9"/>
<stop offset="1" stop-color="#27D8BE"/>
</linearGradient>
<linearGradient id="paint5_linear_1429_3779" x1="269.933" y1="63.3457" x2="269.933" y2="156.567" gradientUnits="userSpaceOnUse">
<stop stop-color="#1D4FCC"/>
<stop offset="0.223558" stop-color="#1D6FD5"/>
<stop offset="0.447115" stop-color="#1691DB"/>
<stop offset="0.62" stop-color="#16A7DE"/>
<stop offset="0.78" stop-color="#19B9D9"/>
<stop offset="1" stop-color="#27D8BE"/>
</linearGradient>
<linearGradient id="paint6_linear_1429_3779" x1="366.598" y1="172.129" x2="366.598" y2="252.248" gradientUnits="userSpaceOnUse">
<stop stop-color="#1D4FCC"/>
<stop offset="0.223558" stop-color="#1D6FD5"/>
<stop offset="0.447115" stop-color="#1691DB"/>
<stop offset="0.62" stop-color="#16A7DE"/>
<stop offset="0.78" stop-color="#19B9D9"/>
<stop offset="1" stop-color="#27D8BE"/>
</linearGradient>
<linearGradient id="paint7_linear_1429_3779" x1="374.893" y1="156.645" x2="374.893" y2="237.002" gradientUnits="userSpaceOnUse">
<stop stop-color="#1D4FCC"/>
<stop offset="0.223558" stop-color="#1D6FD5"/>
<stop offset="0.447115" stop-color="#1691DB"/>
<stop offset="0.62" stop-color="#16A7DE"/>
<stop offset="0.78" stop-color="#19B9D9"/>
<stop offset="1" stop-color="#27D8BE"/>
</linearGradient>
<linearGradient id="paint8_linear_1429_3779" x1="249.733" y1="75.0176" x2="249.733" y2="167.683" gradientUnits="userSpaceOnUse">
<stop stop-color="#1D4FCC"/>
<stop offset="0.223558" stop-color="#1D6FD5"/>
<stop offset="0.447115" stop-color="#1691DB"/>
<stop offset="0.62" stop-color="#16A7DE"/>
<stop offset="0.78" stop-color="#19B9D9"/>
<stop offset="1" stop-color="#27D8BE"/>
</linearGradient>
<linearGradient id="paint9_linear_1429_3779" x1="358.229" y1="187.852" x2="358.229" y2="268.368" gradientUnits="userSpaceOnUse">
<stop stop-color="#1D4FCC"/>
<stop offset="0.223558" stop-color="#1D6FD5"/>
<stop offset="0.447115" stop-color="#1691DB"/>
<stop offset="0.62" stop-color="#16A7DE"/>
<stop offset="0.78" stop-color="#19B9D9"/>
<stop offset="1" stop-color="#27D8BE"/>
</linearGradient>
<linearGradient id="paint10_linear_1429_3779" x1="230.026" y1="86.4512" x2="230.026" y2="178.64" gradientUnits="userSpaceOnUse">
<stop stop-color="#1D4FCC"/>
<stop offset="0.223558" stop-color="#1D6FD5"/>
<stop offset="0.447115" stop-color="#1691DB"/>
<stop offset="0.62" stop-color="#16A7DE"/>
<stop offset="0.78" stop-color="#19B9D9"/>
<stop offset="1" stop-color="#27D8BE"/>
</linearGradient>
<linearGradient id="paint11_linear_1429_3779" x1="349.67" y1="204.209" x2="349.67" y2="284.725" gradientUnits="userSpaceOnUse">
<stop stop-color="#1D4FCC"/>
<stop offset="0.223558" stop-color="#1D6FD5"/>
<stop offset="0.447115" stop-color="#1691DB"/>
<stop offset="0.62" stop-color="#16A7DE"/>
<stop offset="0.78" stop-color="#19B9D9"/>
<stop offset="1" stop-color="#27D8BE"/>
</linearGradient>
<linearGradient id="paint12_linear_1429_3779" x1="210.816" y1="97.7266" x2="210.816" y2="190.153" gradientUnits="userSpaceOnUse">
<stop stop-color="#1D4FCC"/>
<stop offset="0.223558" stop-color="#1D6FD5"/>
<stop offset="0.447115" stop-color="#1691DB"/>
<stop offset="0.62" stop-color="#16A7DE"/>
<stop offset="0.78" stop-color="#19B9D9"/>
<stop offset="1" stop-color="#27D8BE"/>
</linearGradient>
<linearGradient id="paint13_linear_1429_3779" x1="341.186" y1="220.566" x2="341.186" y2="300.606" gradientUnits="userSpaceOnUse">
<stop stop-color="#1D4FCC"/>
<stop offset="0.223558" stop-color="#1D6FD5"/>
<stop offset="0.447115" stop-color="#1691DB"/>
<stop offset="0.62" stop-color="#16A7DE"/>
<stop offset="0.78" stop-color="#19B9D9"/>
<stop offset="1" stop-color="#27D8BE"/>
</linearGradient>
<linearGradient id="paint14_linear_1429_3779" x1="53.1302" y1="292.109" x2="53.1302" y2="311.166" gradientUnits="userSpaceOnUse">
<stop stop-color="#1D4FCC"/>
<stop offset="0.223558" stop-color="#1D6FD5"/>
<stop offset="0.447115" stop-color="#1691DB"/>
<stop offset="0.62" stop-color="#16A7DE"/>
<stop offset="0.78" stop-color="#19B9D9"/>
<stop offset="1" stop-color="#27D8BE"/>
</linearGradient>
<clipPath id="clip0_1429_3779">
<rect width="384" height="384" fill="white" transform="translate(44 40)"/>
</clipPath>
</defs>
</svg>
